<?xml version="1.0" encoding="UTF-8" standalone="no"?>
<svg
   xmlns:dc="http://purl.org/dc/elements/1.1/"
   xmlns:cc="http://creativecommons.org/ns#"
   xmlns:rdf="http://www.w3.org/1999/02/22-rdf-syntax-ns#"
   xmlns:svg="http://www.w3.org/2000/svg"
   xmlns="http://www.w3.org/2000/svg"
   id="svg4"
   viewBox="0 0 64 64"
   version="1.1"
   height="64"
   width="64">
  <metadata
     id="metadata10">
    <rdf:RDF>
      <cc:Work
         rdf:about="">
        <dc:format>image/svg+xml</dc:format>
        <dc:type
           rdf:resource="http://purl.org/dc/dcmitype/StillImage" />
        <dc:title></dc:title>
      </cc:Work>
    </rdf:RDF>
  </metadata>
  <defs
     id="defs8" />
  <path
     stroke-width="1.3333"
     id="path2"
     d="m21.333 37.333v-26.667h42.667v53.333h-42.667zm37.333 0v-21.333h-32v42.667h32zm-58.667-10.667v-26.667h42.667v8h-5.3333v-2.6667h-32v42.667h13.333v5.3333h-18.667z" />
  <circle
     r="4.8135595"
     cy="26.305084"
     cx="42.626705"
     id="path127"
     style="fill:#000000;stroke:none" />
  <path
     id="rect135"
     d="m 36.182447,30.550668 c 2.148086,0 3.153404,3.728814 6.44426,3.728814 3.290856,0 4.296173,-3.728814 6.444259,-3.728814 3.349957,0 6.046853,2.879956 6.046853,6.457301 v 6.136247 c 0,3.577344 -2.696896,6.4573 -6.046853,6.4573 H 36.182447 c -3.349957,0 -6.046853,-2.879956 -6.046853,-6.4573 v -6.136247 c 0,-3.577345 2.696896,-6.457301 6.046853,-6.457301 z"
     style="fill:#000000;stroke:none;stroke-width:0.96769655" />
</svg>
